<?xml version="1.0" encoding="UTF-8"?>
<svg xmlns="http://www.w3.org/2000/svg" xmlns:xlink="http://www.w3.org/1999/xlink" viewBox="0 0 24 24" width="24px" height="24px">
<g id="surface18943140">
<path style=" stroke:none;fill-rule:nonzero;fill:rgb(45.882353%,45.882353%,45.882353%);fill-opacity:1;" d="M 12 0.960938 C 5.886719 0.960938 0.960938 5.886719 0.960938 12 C 0.960938 18.113281 5.886719 23.039062 12 23.039062 C 18.113281 23.039062 23.039062 18.113281 23.039062 12 C 23.039062 5.886719 18.113281 0.960938 12 0.960938 Z M 12 1.921875 C 17.597656 1.921875 22.078125 6.402344 22.078125 12 C 22.078125 17.597656 17.597656 22.078125 12 22.078125 C 6.402344 22.078125 1.921875 17.597656 1.921875 12 C 1.921875 6.402344 6.402344 1.921875 12 1.921875 Z M 12 5.28125 C 11.203125 5.28125 10.558594 5.925781 10.558594 6.71875 C 10.558594 7.515625 11.203125 8.160156 12 8.160156 C 12.796875 8.160156 13.441406 7.515625 13.441406 6.71875 C 13.441406 5.925781 12.796875 5.28125 12 5.28125 Z M 10.078125 10.078125 L 10.078125 11.039062 L 11.039062 11.039062 L 11.039062 17.28125 L 10.078125 17.28125 L 10.078125 18.238281 L 13.921875 18.238281 L 13.921875 17.28125 L 12.960938 17.28125 L 12.960938 10.078125 Z M 10.078125 10.078125 "/>
</g>
</svg>
